<svg xmlns="http://www.w3.org/2000/svg" xmlns:xlink="http://www.w3.org/1999/xlink" width="500" zoomAndPan="magnify" viewBox="0 0 375 374.999991" height="500" preserveAspectRatio="xMidYMid meet" version="1.0"><path fill="#96695e" d="M 152.550781 142.84375 L 128.152344 126.105469 L 128.152344 126.101562 Z M 152.550781 142.84375 " fill-opacity="1" fill-rule="nonzero"/><path fill="#000000" d="M 128.152344 39.449219 L 142.429688 29.652344 L 142.429688 129.925781 L 128.152344 120.128906 L 128.152344 39.449219 " fill-opacity="1" fill-rule="nonzero"/><path fill="#000000" d="M 205.042969 8.808594 L 205.042969 197.445312 L 204.042969 197.632812 L 204.042969 332.199219 C 203.09375 332.5 202.136719 332.796875 201.175781 333.082031 C 186.640625 337.464844 171.878906 340.613281 157.46875 342.453125 L 157.46875 140.253906 L 155.332031 138.78125 L 149.054688 134.46875 L 150.273438 134.46875 L 150.273438 24.269531 L 171.828125 9.472656 L 171.828125 87.984375 L 176.136719 87.984375 L 176.136719 6.519531 L 185.566406 0.046875 L 205.042969 8.808594 " fill-opacity="1" fill-rule="nonzero"/><path fill="#000000" d="M 258.5625 32.878906 L 258.5625 187.164062 L 212.890625 195.941406 L 212.890625 12.339844 L 225.34375 17.941406 L 225.34375 62.132812 L 229.652344 62.132812 L 229.652344 19.875 L 249.257812 28.695312 L 249.257812 118.617188 L 253.5625 118.617188 L 253.5625 30.632812 L 258.5625 32.878906 " fill-opacity="1" fill-rule="nonzero"/><path fill="#daa520" d="M 268.265625 203.125 C 266.890625 203.367188 263.324219 204.003906 258.558594 204.863281 C 244.726562 207.351562 220.847656 211.703125 211.675781 213.730469 L 211.675781 206.347656 C 220.847656 204.316406 244.726562 199.964844 258.558594 197.476562 C 263.324219 196.617188 266.890625 195.976562 268.265625 195.734375 Z M 268.265625 216.804688 C 266.890625 217.042969 263.324219 217.679688 258.558594 218.539062 C 244.726562 221.027344 220.847656 225.390625 211.675781 227.410156 L 211.675781 220.023438 C 220.847656 218 244.726562 213.640625 258.558594 211.152344 C 263.324219 210.292969 266.890625 209.65625 268.265625 209.417969 Z M 268.265625 230.480469 C 266.890625 230.726562 263.324219 231.367188 258.558594 232.222656 C 244.726562 234.710938 220.847656 239.070312 211.675781 241.09375 L 211.675781 233.707031 C 220.847656 231.683594 244.726562 227.324219 258.558594 224.835938 C 263.324219 223.976562 266.890625 223.339844 268.265625 223.097656 Z M 268.265625 244.164062 C 266.890625 244.410156 263.324219 245.046875 258.558594 245.898438 C 244.726562 248.394531 220.847656 252.75 211.675781 254.777344 L 211.675781 247.390625 C 220.847656 245.363281 244.726562 241.007812 258.558594 238.511719 C 263.324219 237.652344 266.890625 237.023438 268.265625 236.777344 Z M 268.265625 257.847656 C 266.890625 258.085938 263.324219 258.726562 258.558594 259.585938 C 244.726562 262.070312 220.847656 266.425781 211.675781 268.453125 L 211.675781 261.070312 C 220.847656 259.035156 244.726562 254.6875 258.558594 252.195312 C 263.324219 251.339844 266.890625 250.699219 268.265625 250.460938 Z M 268.265625 271.527344 C 266.890625 271.773438 263.324219 272.410156 258.558594 273.265625 C 244.726562 275.757812 220.847656 280.113281 211.675781 282.140625 L 211.675781 274.75 C 220.847656 272.722656 244.726562 268.363281 258.558594 265.878906 C 263.324219 265.023438 266.890625 264.382812 268.265625 264.140625 Z M 268.265625 285.210938 C 266.890625 285.457031 263.324219 286.089844 258.558594 286.945312 C 244.726562 289.4375 220.847656 293.792969 211.675781 295.820312 L 211.675781 288.433594 C 220.847656 286.402344 244.726562 282.050781 258.558594 279.558594 C 263.324219 278.699219 266.890625 278.058594 268.265625 277.820312 Z M 268.265625 298.886719 C 266.890625 299.132812 263.324219 299.769531 258.558594 300.628906 C 244.726562 303.117188 220.847656 307.472656 211.675781 309.5 L 211.675781 302.109375 C 220.847656 300.082031 244.726562 295.730469 258.558594 293.230469 C 263.324219 292.382812 266.890625 291.746094 268.265625 291.5 Z M 269.863281 189.46875 L 269.765625 189.488281 L 258.558594 191.640625 L 208.96875 201.164062 L 208.96875 330.605469 C 209.871094 330.3125 210.773438 330.003906 211.675781 329.695312 L 211.675781 329.472656 C 212.179688 329.359375 212.730469 329.242188 213.324219 329.117188 C 223.148438 325.679688 232.582031 321.746094 241.511719 317.40625 C 229.886719 319.546875 217.652344 321.859375 211.675781 323.175781 L 211.675781 315.785156 C 220.847656 313.765625 244.726562 309.40625 258.558594 306.921875 C 259.671875 306.722656 260.726562 306.53125 261.699219 306.359375 C 273.929688 298.84375 284.777344 290.488281 293.847656 281.539062 L 293.847656 205.46875 L 269.863281 189.46875 " fill-opacity="1" fill-rule="nonzero"/><path fill="#daa520" d="M 108.777344 135.402344 L 94.890625 141.652344 L 94.890625 128.671875 L 108.777344 122.425781 Z M 108.777344 154.636719 L 94.890625 160.882812 L 94.890625 147.898438 L 108.777344 141.652344 Z M 108.777344 173.859375 L 94.890625 180.109375 L 94.890625 167.128906 L 108.777344 160.882812 Z M 108.777344 193.089844 L 94.890625 199.339844 L 94.890625 186.351562 L 108.777344 180.109375 Z M 108.777344 212.316406 L 94.890625 218.5625 L 94.890625 205.585938 L 108.777344 199.339844 Z M 108.777344 231.550781 L 94.890625 237.792969 L 94.890625 224.8125 L 108.777344 218.5625 Z M 108.777344 250.773438 L 94.890625 257.023438 L 94.890625 244.042969 L 108.777344 237.792969 Z M 108.777344 270.003906 L 94.890625 276.253906 L 94.890625 263.265625 L 108.777344 257.023438 Z M 108.777344 289.230469 L 94.890625 295.476562 L 94.890625 282.492188 L 108.777344 276.253906 Z M 108.777344 308.460938 L 94.890625 314.710938 L 94.890625 301.726562 L 108.777344 295.476562 Z M 108.777344 327.691406 L 94.890625 333.933594 L 94.890625 320.953125 L 108.777344 314.710938 Z M 91.867188 143.011719 L 79.558594 148.546875 L 79.558594 135.5625 L 91.867188 130.03125 Z M 91.867188 162.242188 L 79.558594 167.773438 L 79.558594 154.792969 L 91.867188 149.261719 Z M 91.867188 181.46875 L 79.558594 187.003906 L 79.558594 174.019531 L 91.867188 168.488281 Z M 91.867188 200.699219 L 79.558594 206.226562 L 79.558594 193.253906 L 91.867188 187.714844 Z M 91.867188 219.925781 L 79.558594 225.464844 L 79.558594 212.476562 L 91.867188 206.945312 Z M 91.867188 239.15625 L 79.558594 244.6875 L 79.558594 231.707031 L 91.867188 226.171875 Z M 91.867188 258.382812 L 79.558594 263.917969 L 79.558594 250.933594 L 91.867188 245.402344 Z M 91.867188 277.613281 L 79.558594 283.144531 L 79.558594 270.164062 L 91.867188 264.628906 Z M 91.867188 296.839844 L 79.558594 302.375 L 79.558594 289.390625 L 91.867188 283.863281 Z M 91.867188 316.070312 L 79.558594 321.597656 L 79.558594 308.621094 L 91.867188 303.085938 Z M 76.535156 149.90625 L 62.648438 156.15625 L 62.648438 143.175781 L 76.535156 136.929688 Z M 76.535156 169.140625 L 62.648438 175.386719 L 62.648438 162.402344 L 76.535156 156.15625 Z M 76.535156 188.367188 L 62.648438 194.613281 L 62.648438 181.636719 L 76.535156 175.386719 Z M 76.535156 207.59375 L 62.648438 213.84375 L 62.648438 200.859375 L 76.535156 194.613281 Z M 76.535156 226.824219 L 62.648438 233.070312 L 62.648438 220.085938 L 76.535156 213.84375 Z M 76.535156 246.054688 L 62.648438 252.296875 L 62.648438 239.316406 L 76.535156 233.070312 Z M 76.535156 265.277344 L 62.648438 271.527344 L 62.648438 258.539062 L 76.535156 252.296875 Z M 76.535156 284.507812 L 62.648438 290.75 L 62.648438 277.769531 L 76.535156 271.527344 Z M 76.535156 303.734375 L 62.648438 309.980469 L 62.648438 297 L 76.535156 290.75 Z M 76.535156 322.960938 L 62.648438 329.207031 L 62.648438 316.230469 L 76.535156 309.980469 Z M 128.152344 126.105469 L 111.914062 114.957031 L 60.253906 138.191406 L 60.253906 327.832031 C 62.847656 329.582031 65.683594 331.214844 68.753906 332.707031 L 76.535156 329.207031 L 76.535156 336.050781 C 77.527344 336.425781 78.535156 336.785156 79.558594 337.132812 L 79.558594 327.847656 L 91.867188 322.316406 L 91.867188 335.296875 L 84.394531 338.65625 C 87.75 339.632812 91.253906 340.488281 94.890625 341.214844 L 94.890625 340.183594 L 108.777344 333.933594 L 108.777344 343.316406 C 115.136719 344.003906 121.792969 344.34375 128.691406 344.34375 C 136.441406 344.34375 144.429688 343.902344 152.550781 343.027344 L 152.550781 142.84375 L 128.152344 126.105469 " fill-opacity="1" fill-rule="nonzero"/><path fill="#000000" d="M 293.847656 323.238281 C 285.957031 328.679688 277.402344 333.875 268.265625 338.722656 C 267.105469 339.34375 265.933594 339.949219 264.757812 340.554688 C 257.605469 344.226562 250.113281 347.691406 242.320312 350.914062 C 232.648438 354.90625 222.519531 358.53125 212 361.699219 C 211.890625 361.730469 211.785156 361.765625 211.675781 361.796875 C 210.773438 362.070312 209.867188 362.335938 208.96875 362.597656 C 207.324219 363.074219 205.6875 363.539062 204.042969 363.992188 C 188.171875 368.347656 172.519531 371.363281 157.46875 373.101562 C 155.824219 373.300781 154.179688 373.472656 152.550781 373.628906 C 143.773438 374.496094 135.222656 374.917969 126.953125 374.917969 C 114.523438 374.917969 102.746094 373.960938 91.867188 372.089844 C 87.621094 371.371094 83.515625 370.503906 79.558594 369.5 C 78.542969 369.242188 77.53125 368.976562 76.535156 368.699219 L 76.535156 367.664062 L 75.132812 368.296875 C 72.347656 367.503906 69.652344 366.636719 67.039062 365.691406 C 65.542969 365.15625 64.082031 364.59375 62.648438 364.007812 C 61.835938 363.6875 61.042969 363.347656 60.253906 363 C 40.761719 354.550781 27.125 341.75 22.128906 325.152344 C 15.230469 302.222656 26.089844 276.21875 49.375 252.394531 C 35.398438 270.578125 29.636719 289.59375 34.792969 306.746094 C 38.507812 319.074219 47.457031 329.09375 60.253906 336.507812 C 61.035156 336.96875 61.832031 337.410156 62.648438 337.84375 C 66.3125 339.808594 70.253906 341.566406 74.457031 343.125 C 77.035156 344.082031 79.71875 344.964844 82.492188 345.761719 C 85.515625 346.640625 88.636719 347.414062 91.867188 348.09375 C 92.863281 348.308594 93.875 348.511719 94.890625 348.710938 C 97.257812 349.15625 99.667969 349.554688 102.132812 349.90625 C 110.492188 351.09375 119.394531 351.703125 128.691406 351.703125 C 136.390625 351.703125 144.375 351.285156 152.550781 350.4375 C 154.179688 350.269531 155.824219 350.082031 157.46875 349.882812 C 172.28125 348.054688 187.699219 344.828125 203.296875 340.128906 C 203.546875 340.054688 203.796875 339.972656 204.042969 339.898438 C 205.695312 339.398438 207.335938 338.882812 208.96875 338.347656 C 211.386719 337.570312 213.78125 336.761719 216.144531 335.921875 C 227.226562 332.011719 237.730469 327.527344 247.546875 322.597656 C 253.441406 319.632812 259.078125 316.511719 264.445312 313.253906 C 265.738281 312.46875 267.007812 311.679688 268.265625 310.886719 C 277.792969 304.839844 286.375 298.371094 293.847656 291.632812 C 319.582031 268.460938 332.269531 242.144531 325.359375 219.171875 C 318.996094 198.039062 297.238281 183.707031 267.128906 177.582031 C 310.023438 181.824219 341.878906 198.867188 350.132812 226.296875 C 359.46875 257.320312 336.300781 293.957031 293.847656 323.238281 " fill-opacity="1" fill-rule="nonzero"/><path fill="#000000" d="M 76.535156 367.664062 L 76.535156 368.699219 C 76.0625 368.566406 75.597656 368.4375 75.132812 368.296875 L 76.535156 367.664062 " fill-opacity="1" fill-rule="nonzero"/></svg>