<svg xmlns="http://www.w3.org/2000/svg" xmlns:xlink="http://www.w3.org/1999/xlink" width="1000" zoomAndPan="magnify" viewBox="0 0 750 262.499992" height="350" preserveAspectRatio="xMidYMid meet" version="1.0"><defs><g/><clipPath id="id1"><path d="M 205 22.441406 L 238 22.441406 L 238 221 L 205 221 Z M 205 22.441406 " clip-rule="nonzero"/></clipPath><clipPath id="id2"><path d="M 130 125 L 323 125 L 323 239.53125 L 130 239.53125 Z M 130 125 " clip-rule="nonzero"/></clipPath></defs><path fill="#ffffff" d="M 207.445312 105.136719 L 193.335938 95.445312 L 193.335938 95.441406 Z M 207.445312 105.136719 " fill-opacity="1" fill-rule="nonzero"/><path fill="#000000" d="M 193.335938 45.277344 L 201.59375 39.605469 L 201.59375 97.65625 L 193.335938 91.984375 L 193.335938 45.277344 " fill-opacity="1" fill-rule="nonzero"/><g clip-path="url(#id1)"><path fill="#000000" d="M 237.808594 27.539062 L 237.808594 136.742188 L 237.230469 136.851562 L 237.230469 214.753906 C 236.683594 214.925781 236.128906 215.097656 235.570312 215.265625 C 227.164062 217.800781 218.625 219.625 210.292969 220.691406 L 210.292969 103.636719 L 209.058594 102.78125 L 205.425781 100.285156 L 206.128906 100.285156 L 206.128906 36.492188 L 218.597656 27.925781 L 218.597656 73.375 L 221.089844 73.375 L 221.089844 26.21875 L 226.546875 22.46875 L 237.808594 27.539062 " fill-opacity="1" fill-rule="nonzero"/></g><path fill="#000000" d="M 268.765625 41.476562 L 268.765625 130.789062 L 242.351562 135.871094 L 242.351562 29.585938 L 249.550781 32.828125 L 249.550781 58.410156 L 252.042969 58.410156 L 252.042969 33.949219 L 263.382812 39.054688 L 263.382812 91.109375 L 265.875 91.109375 L 265.875 40.175781 L 268.765625 41.476562 " fill-opacity="1" fill-rule="nonzero"/><path fill="#daa520" d="M 274.378906 140.03125 C 273.582031 140.171875 271.519531 140.539062 268.765625 141.039062 C 260.765625 142.476562 246.949219 144.996094 241.648438 146.171875 L 241.648438 141.898438 C 246.949219 140.722656 260.765625 138.203125 268.765625 136.761719 C 271.519531 136.265625 273.582031 135.894531 274.378906 135.753906 Z M 274.378906 147.949219 C 273.582031 148.089844 271.519531 148.457031 268.765625 148.953125 C 260.765625 150.394531 246.949219 152.921875 241.648438 154.089844 L 241.648438 149.8125 C 246.949219 148.644531 260.765625 146.117188 268.765625 144.675781 C 271.519531 144.179688 273.582031 143.8125 274.378906 143.675781 Z M 274.378906 155.867188 C 273.582031 156.011719 271.519531 156.378906 268.765625 156.875 C 260.765625 158.316406 246.949219 160.839844 241.648438 162.011719 L 241.648438 157.738281 C 246.949219 156.5625 260.765625 154.042969 268.765625 152.601562 C 271.519531 152.101562 273.582031 151.734375 274.378906 151.59375 Z M 274.378906 163.789062 C 273.582031 163.933594 271.519531 164.300781 268.765625 164.792969 C 260.765625 166.238281 246.949219 168.757812 241.648438 169.933594 L 241.648438 165.65625 C 246.949219 164.484375 260.765625 161.960938 268.765625 160.515625 C 271.519531 160.019531 273.582031 159.65625 274.378906 159.511719 Z M 274.378906 171.710938 C 273.582031 171.847656 271.519531 172.21875 268.765625 172.714844 C 260.765625 174.15625 246.949219 176.675781 241.648438 177.851562 L 241.648438 173.574219 C 246.949219 172.398438 260.765625 169.882812 268.765625 168.4375 C 271.519531 167.941406 273.582031 167.574219 274.378906 167.433594 Z M 274.378906 179.628906 C 273.582031 179.773438 271.519531 180.140625 268.765625 180.636719 C 260.765625 182.078125 246.949219 184.601562 241.648438 185.773438 L 241.648438 181.496094 C 246.949219 180.320312 260.765625 177.796875 268.765625 176.359375 C 271.519531 175.863281 273.582031 175.496094 274.378906 175.351562 Z M 274.378906 187.550781 C 273.582031 187.691406 271.519531 188.058594 268.765625 188.554688 C 260.765625 190 246.949219 192.519531 241.648438 193.695312 L 241.648438 189.417969 C 246.949219 188.242188 260.765625 185.722656 268.765625 184.277344 C 271.519531 183.78125 273.582031 183.410156 274.378906 183.273438 Z M 274.378906 195.46875 C 273.582031 195.609375 271.519531 195.980469 268.765625 196.476562 C 260.765625 197.917969 246.949219 200.4375 241.648438 201.613281 L 241.648438 197.335938 C 246.949219 196.160156 260.765625 193.640625 268.765625 192.195312 C 271.519531 191.703125 273.582031 191.335938 274.378906 191.191406 Z M 275.304688 132.125 L 275.246094 132.136719 L 268.765625 133.382812 L 240.078125 138.898438 L 240.078125 213.828125 C 240.605469 213.660156 241.125 213.480469 241.648438 213.300781 L 241.648438 213.175781 C 241.9375 213.109375 242.257812 213.042969 242.597656 212.96875 C 248.28125 210.976562 253.738281 208.703125 258.90625 206.191406 C 252.179688 207.429688 245.101562 208.765625 241.648438 209.527344 L 241.648438 205.25 C 246.949219 204.082031 260.765625 201.558594 268.765625 200.121094 C 269.410156 200.003906 270.019531 199.894531 270.582031 199.792969 C 277.652344 195.445312 283.929688 190.605469 289.175781 185.425781 L 289.175781 141.386719 L 275.304688 132.125 " fill-opacity="1" fill-rule="nonzero"/><path fill="#daa520" d="M 182.128906 100.828125 L 174.097656 104.445312 L 174.097656 96.929688 L 182.128906 93.316406 Z M 182.128906 111.960938 L 174.097656 115.578125 L 174.097656 108.0625 L 182.128906 104.445312 Z M 182.128906 123.089844 L 174.097656 126.707031 L 174.097656 119.195312 L 182.128906 115.578125 Z M 182.128906 134.222656 L 174.097656 137.839844 L 174.097656 130.320312 L 182.128906 126.707031 Z M 182.128906 145.351562 L 174.097656 148.96875 L 174.097656 141.457031 L 182.128906 137.839844 Z M 182.128906 156.488281 L 174.097656 160.101562 L 174.097656 152.585938 L 182.128906 148.96875 Z M 182.128906 167.613281 L 174.097656 171.234375 L 174.097656 163.71875 L 182.128906 160.101562 Z M 182.128906 178.746094 L 174.097656 182.363281 L 174.097656 174.847656 L 182.128906 171.234375 Z M 182.128906 189.878906 L 174.097656 193.492188 L 174.097656 185.976562 L 182.128906 182.363281 Z M 182.128906 201.011719 L 174.097656 204.628906 L 174.097656 197.109375 L 182.128906 193.492188 Z M 182.128906 212.140625 L 174.097656 215.757812 L 174.097656 208.242188 L 182.128906 204.628906 Z M 172.347656 105.230469 L 165.226562 108.433594 L 165.226562 100.921875 L 172.347656 97.71875 Z M 172.347656 116.363281 L 165.226562 119.566406 L 165.226562 112.050781 L 172.347656 108.847656 Z M 172.347656 127.496094 L 165.226562 130.699219 L 165.226562 123.183594 L 172.347656 119.980469 Z M 172.347656 138.628906 L 165.226562 141.828125 L 165.226562 134.316406 L 172.347656 131.109375 Z M 172.347656 149.757812 L 165.226562 152.964844 L 165.226562 145.445312 L 172.347656 142.242188 Z M 172.347656 160.890625 L 165.226562 164.089844 L 165.226562 156.578125 L 172.347656 153.375 Z M 172.347656 172.019531 L 165.226562 175.222656 L 165.226562 167.707031 L 172.347656 164.507812 Z M 172.347656 183.152344 L 165.226562 186.355469 L 165.226562 178.839844 L 172.347656 175.636719 Z M 172.347656 194.285156 L 165.226562 197.488281 L 165.226562 189.96875 L 172.347656 186.769531 Z M 172.347656 205.417969 L 165.226562 208.617188 L 165.226562 201.101562 L 172.347656 197.898438 Z M 163.476562 109.222656 L 155.445312 112.839844 L 155.445312 105.328125 L 163.476562 101.710938 Z M 163.476562 120.359375 L 155.445312 123.972656 L 155.445312 116.457031 L 163.476562 112.839844 Z M 163.476562 131.488281 L 155.445312 135.105469 L 155.445312 127.589844 L 163.476562 123.972656 Z M 163.476562 142.621094 L 155.445312 146.238281 L 155.445312 138.71875 L 163.476562 135.105469 Z M 163.476562 153.75 L 155.445312 157.367188 L 155.445312 149.851562 L 163.476562 146.238281 Z M 163.476562 164.882812 L 155.445312 168.496094 L 155.445312 160.984375 L 163.476562 157.367188 Z M 163.476562 176.011719 L 155.445312 179.628906 L 155.445312 172.109375 L 163.476562 168.496094 Z M 163.476562 187.144531 L 155.445312 190.757812 L 155.445312 183.246094 L 163.476562 179.628906 Z M 163.476562 198.277344 L 155.445312 201.890625 L 155.445312 194.375 L 163.476562 190.757812 Z M 163.476562 209.40625 L 155.445312 213.023438 L 155.445312 205.507812 L 163.476562 201.890625 Z M 193.335938 95.445312 L 183.941406 88.992188 L 154.058594 102.441406 L 154.058594 212.226562 C 155.5625 213.238281 157.203125 214.183594 158.976562 215.046875 L 163.476562 213.023438 L 163.476562 216.984375 C 164.050781 217.199219 164.636719 217.410156 165.226562 217.609375 L 165.226562 212.234375 L 172.347656 209.03125 L 172.347656 216.546875 L 168.023438 218.492188 C 169.964844 219.054688 171.992188 219.550781 174.097656 219.972656 L 174.097656 219.375 L 182.128906 215.757812 L 182.128906 221.1875 C 185.804688 221.585938 189.65625 221.78125 193.648438 221.78125 C 198.128906 221.78125 202.75 221.527344 207.449219 221.023438 L 207.449219 105.136719 L 193.335938 95.445312 " fill-opacity="1" fill-rule="nonzero"/><g clip-path="url(#id2)"><path fill="#000000" d="M 289.175781 209.566406 C 284.613281 212.714844 279.664062 215.722656 274.378906 218.53125 C 273.707031 218.886719 273.03125 219.238281 272.351562 219.589844 C 268.210938 221.714844 263.878906 223.71875 259.371094 225.585938 C 253.777344 227.898438 247.917969 229.996094 241.832031 231.832031 C 241.769531 231.847656 241.710938 231.871094 241.648438 231.886719 C 241.125 232.042969 240.601562 232.199219 240.078125 232.351562 C 239.128906 232.625 238.179688 232.894531 237.230469 233.15625 C 228.050781 235.679688 219 237.425781 210.292969 238.433594 C 209.339844 238.546875 208.390625 238.644531 207.449219 238.738281 C 202.371094 239.238281 197.425781 239.480469 192.640625 239.480469 C 185.453125 239.480469 178.640625 238.929688 172.347656 237.847656 C 169.890625 237.429688 167.515625 236.925781 165.226562 236.34375 C 164.640625 236.195312 164.054688 236.042969 163.476562 235.882812 L 163.476562 235.28125 L 162.667969 235.648438 C 161.058594 235.191406 159.5 234.6875 157.984375 234.140625 C 157.121094 233.832031 156.273438 233.507812 155.445312 233.167969 C 154.976562 232.980469 154.515625 232.785156 154.058594 232.582031 C 142.785156 227.691406 134.898438 220.28125 132.007812 210.675781 C 128.019531 197.398438 134.300781 182.347656 147.765625 168.554688 C 139.683594 179.078125 136.351562 190.089844 139.335938 200.019531 C 141.480469 207.15625 146.660156 212.953125 154.058594 217.246094 C 154.511719 217.515625 154.972656 217.769531 155.445312 218.019531 C 157.5625 219.15625 159.847656 220.175781 162.277344 221.078125 C 163.769531 221.632812 165.320312 222.144531 166.925781 222.601562 C 168.671875 223.113281 170.480469 223.5625 172.347656 223.957031 C 172.925781 224.078125 173.507812 224.195312 174.097656 224.3125 C 175.464844 224.570312 176.859375 224.800781 178.285156 225.003906 C 183.121094 225.691406 188.269531 226.042969 193.648438 226.042969 C 198.101562 226.042969 202.71875 225.800781 207.449219 225.3125 C 208.390625 225.214844 209.339844 225.105469 210.292969 224.988281 C 218.859375 223.929688 227.777344 222.0625 236.800781 219.34375 C 236.945312 219.300781 237.089844 219.253906 237.230469 219.210938 C 238.1875 218.921875 239.136719 218.621094 240.078125 218.3125 C 241.480469 217.863281 242.863281 217.394531 244.230469 216.90625 C 250.640625 214.644531 256.71875 212.046875 262.394531 209.195312 C 265.804688 207.480469 269.066406 205.671875 272.167969 203.785156 C 272.917969 203.332031 273.652344 202.875 274.378906 202.414062 C 279.890625 198.914062 284.855469 195.167969 289.175781 191.269531 C 304.0625 177.855469 311.398438 162.621094 307.402344 149.320312 C 303.722656 137.085938 291.136719 128.789062 273.722656 125.242188 C 298.535156 127.699219 316.957031 137.566406 321.730469 153.445312 C 327.132812 171.40625 313.730469 192.613281 289.175781 209.566406 " fill-opacity="1" fill-rule="nonzero"/></g><path fill="#000000" d="M 163.476562 235.28125 L 163.476562 235.882812 C 163.203125 235.804688 162.9375 235.730469 162.667969 235.648438 L 163.476562 235.28125 " fill-opacity="1" fill-rule="nonzero"/><g fill="#000000" fill-opacity="1"><g transform="translate(355.806152, 124.055333)"><g><path d="M 3.46875 -1.40625 C 3.007812 -1.675781 2.613281 -1.953125 2.28125 -2.234375 C 1.945312 -2.523438 1.78125 -2.832031 1.78125 -3.15625 C 1.78125 -3.789062 2.050781 -4.109375 2.59375 -4.109375 C 2.945312 -4.109375 3.335938 -3.910156 3.765625 -3.515625 C 4.203125 -3.117188 4.6875 -2.773438 5.21875 -2.484375 C 5.757812 -2.191406 6.34375 -1.941406 6.96875 -1.734375 C 8.269531 -1.296875 9.46875 -1.078125 10.5625 -1.078125 C 11.664062 -1.078125 12.515625 -1.148438 13.109375 -1.296875 C 13.703125 -1.441406 14.203125 -1.640625 14.609375 -1.890625 C 15.472656 -2.421875 15.90625 -3.109375 15.90625 -3.953125 C 15.90625 -4.722656 15.53125 -5.5 14.78125 -6.28125 C 14.15625 -6.945312 13.265625 -7.75 12.109375 -8.6875 L 8.765625 -11.3125 C 5.398438 -13.90625 3.414062 -16.273438 2.8125 -18.421875 C 2.601562 -19.171875 2.5 -20.003906 2.5 -20.921875 C 2.5 -21.835938 2.703125 -22.738281 3.109375 -23.625 C 3.523438 -24.507812 4.140625 -25.289062 4.953125 -25.96875 C 6.691406 -27.414062 9.0625 -28.140625 12.0625 -28.140625 C 13.59375 -28.140625 14.96875 -27.910156 16.1875 -27.453125 C 17.40625 -27.003906 18.234375 -26.601562 18.671875 -26.25 C 19.117188 -25.894531 19.34375 -25.578125 19.34375 -25.296875 C 19.34375 -24.691406 19.09375 -24.390625 18.59375 -24.390625 C 18.3125 -24.390625 18.003906 -24.53125 17.671875 -24.8125 C 17.347656 -25.101562 16.984375 -25.359375 16.578125 -25.578125 C 16.179688 -25.796875 15.726562 -25.988281 15.21875 -26.15625 C 14.113281 -26.519531 13.035156 -26.703125 11.984375 -26.703125 C 10.023438 -26.703125 9.046875 -26.0625 9.046875 -24.78125 C 9.046875 -24.25 9.222656 -23.753906 9.578125 -23.296875 C 10.210938 -22.492188 11.441406 -21.347656 13.265625 -19.859375 C 15.085938 -18.378906 16.550781 -17.082031 17.65625 -15.96875 C 18.769531 -14.851562 19.613281 -13.851562 20.1875 -12.96875 C 21.101562 -11.5625 21.5625 -10.101562 21.5625 -8.59375 C 21.5625 -7.082031 21.296875 -5.796875 20.765625 -4.734375 C 20.234375 -3.679688 19.488281 -2.773438 18.53125 -2.015625 C 16.519531 -0.421875 14.019531 0.375 11.03125 0.375 C 8.050781 0.375 5.53125 -0.21875 3.46875 -1.40625 Z M 3.46875 -1.40625 "/></g></g></g><g fill="#000000" fill-opacity="1"><g transform="translate(379.17421, 124.055333)"><g><path d="M 8.390625 -3.5 C 5.992188 -3.5 4.351562 -3.515625 3.46875 -3.546875 L 2.90625 -2.203125 C 2.738281 -1.816406 2.582031 -1.414062 2.4375 -1 C 2.132812 -0.1875 1.710938 0.21875 1.171875 0.21875 C 0.929688 0.21875 0.726562 0.140625 0.5625 -0.015625 C 0.40625 -0.171875 0.328125 -0.335938 0.328125 -0.515625 C 0.328125 -0.796875 0.453125 -1.113281 0.703125 -1.46875 C 1.097656 -2.019531 1.484375 -2.742188 1.859375 -3.640625 C 0.734375 -3.742188 0.171875 -4.066406 0.171875 -4.609375 C 0.171875 -5.160156 0.492188 -5.4375 1.140625 -5.4375 C 1.535156 -5.4375 1.992188 -5.375 2.515625 -5.25 L 12.3125 -29.046875 L 25.75 0 L 15.515625 0 L 13.890625 -3.5 Z M 4.109375 -5.09375 C 5.359375 -4.976562 6.484375 -4.921875 7.484375 -4.921875 L 13.234375 -4.921875 L 8.328125 -15.515625 Z M 4.109375 -5.09375 "/></g></g></g><g fill="#000000" fill-opacity="1"><g transform="translate(405.782378, 124.055333)"><g><path d="M 5.25 -2.8125 L 5.296875 -0.84375 C 5.296875 -0.5 5.203125 -0.234375 5.015625 -0.046875 C 4.835938 0.128906 4.617188 0.21875 4.359375 0.21875 C 4.109375 0.21875 3.894531 0.132812 3.71875 -0.03125 C 3.550781 -0.207031 3.46875 -0.394531 3.46875 -0.59375 C 3.46875 -0.800781 3.484375 -0.992188 3.515625 -1.171875 C 3.554688 -1.347656 3.585938 -1.546875 3.609375 -1.765625 C 3.679688 -2.148438 3.71875 -3.097656 3.71875 -4.609375 L 3.71875 -29.046875 L 25.0625 -12.109375 L 25.0625 -23.828125 C 25.0625 -24.710938 25.035156 -25.34375 24.984375 -25.71875 C 24.910156 -26.34375 24.875 -26.773438 24.875 -27.015625 C 24.875 -27.671875 25.15625 -28 25.71875 -28 C 25.945312 -28 26.160156 -27.921875 26.359375 -27.765625 C 26.566406 -27.609375 26.671875 -27.378906 26.671875 -27.078125 L 26.671875 -26.390625 L 26.59375 -23.546875 L 26.59375 1.078125 L 5.25 -15.671875 Z M 5.25 -2.8125 "/></g></g></g><g fill="#000000" fill-opacity="1"><g transform="translate(435.92521, 124.055333)"><g><path d="M 26 -4.65625 C 26.539062 -4.65625 26.8125 -4.351562 26.8125 -3.75 C 26.8125 -3.25 26.429688 -2.753906 25.671875 -2.265625 C 24.253906 -1.328125 23.0625 -0.71875 22.09375 -0.4375 C 20.269531 0.101562 18.359375 0.375 16.359375 0.375 C 14.359375 0.375 12.429688 0.0195312 10.578125 -0.6875 C 8.722656 -1.40625 7.140625 -2.40625 5.828125 -3.6875 C 3.097656 -6.382812 1.734375 -9.867188 1.734375 -14.140625 C 1.734375 -16.191406 2.117188 -18.078125 2.890625 -19.796875 C 3.660156 -21.523438 4.726562 -23.003906 6.09375 -24.234375 C 8.96875 -26.835938 12.585938 -28.140625 16.953125 -28.140625 C 19.398438 -28.140625 21.550781 -27.722656 23.40625 -26.890625 C 25.382812 -26.003906 26.375 -25.253906 26.375 -24.640625 C 26.375 -24.390625 26.289062 -24.171875 26.125 -23.984375 C 25.96875 -23.804688 25.78125 -23.71875 25.5625 -23.71875 C 25.144531 -23.71875 24.765625 -23.90625 24.421875 -24.28125 C 24.085938 -24.65625 23.628906 -24.992188 23.046875 -25.296875 C 22.460938 -25.597656 21.820312 -25.859375 21.125 -26.078125 C 19.71875 -26.515625 18.429688 -26.734375 17.265625 -26.734375 C 16.109375 -26.734375 15.148438 -26.648438 14.390625 -26.484375 L 14.390625 -1.3125 C 15.304688 -1.15625 16.117188 -1.078125 16.828125 -1.078125 C 17.535156 -1.078125 18.253906 -1.125 18.984375 -1.21875 C 19.722656 -1.3125 20.445312 -1.460938 21.15625 -1.671875 C 22.738281 -2.140625 23.925781 -2.832031 24.71875 -3.75 C 25.007812 -4.09375 25.238281 -4.328125 25.40625 -4.453125 C 25.582031 -4.585938 25.78125 -4.65625 26 -4.65625 Z M 26 -4.65625 "/></g></g></g><g fill="#000000" fill-opacity="1"><g transform="translate(464.123976, 124.055333)"><g><path d="M 24.90625 -2.84375 L 24.953125 -0.84375 C 24.953125 -0.5 24.851562 -0.234375 24.65625 -0.046875 C 24.46875 0.128906 24.242188 0.21875 23.984375 0.21875 C 23.734375 0.21875 23.53125 0.132812 23.375 -0.03125 C 23.226562 -0.207031 23.15625 -0.425781 23.15625 -0.6875 C 23.15625 -0.945312 23.1875 -1.242188 23.25 -1.578125 C 23.34375 -1.984375 23.390625 -2.992188 23.390625 -4.609375 L 23.390625 -18.953125 L 13.515625 -18.953125 L 13.515625 0 L 3.46875 0 L 3.46875 -27.78125 L 13.515625 -27.78125 L 13.515625 -20.390625 C 16.335938 -20.390625 18.585938 -20.390625 20.265625 -20.390625 C 21.953125 -20.390625 22.992188 -20.394531 23.390625 -20.40625 L 23.390625 -23.828125 C 23.390625 -24.960938 23.367188 -25.703125 23.328125 -26.046875 L 23.25 -26.625 C 23.238281 -26.8125 23.234375 -26.96875 23.234375 -27.09375 C 23.234375 -27.695312 23.507812 -28 24.0625 -28 C 24.25 -28 24.445312 -27.921875 24.65625 -27.765625 C 24.875 -27.609375 24.984375 -27.347656 24.984375 -26.984375 L 24.90625 -24.46875 L 24.90625 -20.484375 L 26.140625 -20.65625 C 26.367188 -20.65625 26.5625 -20.585938 26.71875 -20.453125 C 26.882812 -20.316406 26.96875 -20.132812 26.96875 -19.90625 C 26.96875 -19.394531 26.5625 -19.109375 25.75 -19.046875 C 25.601562 -19.023438 25.457031 -19.007812 25.3125 -19 C 25.175781 -18.988281 25.039062 -18.976562 24.90625 -18.96875 Z M 24.90625 -2.84375 "/></g></g></g><g fill="#000000" fill-opacity="1"><g transform="translate(492.813668, 124.055333)"><g><path d="M 3.140625 -27.78125 L 13.15625 -27.78125 L 13.15625 0 L 3.140625 0 Z M 3.140625 -27.78125 "/></g></g></g><g fill="#000000" fill-opacity="1"><g transform="translate(509.092761, 124.055333)"><g><path d="M 1.015625 0.296875 C 0.765625 0.265625 0.570312 0.15625 0.4375 -0.03125 C 0.3125 -0.226562 0.257812 -0.445312 0.28125 -0.6875 C 0.34375 -1.09375 0.46875 -1.460938 0.65625 -1.796875 C 0.84375 -2.140625 0.976562 -2.394531 1.0625 -2.5625 C 1.144531 -2.738281 1.234375 -2.929688 1.328125 -3.140625 L 2.0625 -4.875 L 10.140625 -29.046875 L 18.828125 -12.28125 L 27.25 -29.046875 L 37.3125 0 L 26.78125 0 L 21.90625 -15 L 14.359375 0.703125 L 6.421875 -13.4375 L 3.6875 -4.84375 C 3.25 -3.894531 2.9375 -3.082031 2.75 -2.40625 C 2.570312 -1.738281 2.425781 -1.222656 2.3125 -0.859375 C 2.039062 -0.0351562 1.609375 0.347656 1.015625 0.296875 Z M 1.015625 0.296875 "/></g></g></g><g fill="#000000" fill-opacity="1"><g transform="translate(546.854766, 124.055333)"><g><path d="M 6.375 -3.546875 C 5.082031 -4.804688 4.050781 -6.335938 3.28125 -8.140625 C 2.519531 -9.941406 2.140625 -11.90625 2.140625 -14.03125 C 2.140625 -16.15625 2.503906 -18.066406 3.234375 -19.765625 C 3.960938 -21.460938 4.96875 -22.929688 6.25 -24.171875 C 9 -26.816406 12.445312 -28.140625 16.59375 -28.140625 C 20.71875 -28.140625 24.097656 -26.835938 26.734375 -24.234375 C 29.398438 -21.585938 30.734375 -18.15625 30.734375 -13.9375 C 30.734375 -9.738281 29.363281 -6.285156 26.625 -3.578125 C 24.914062 -1.898438 22.8125 -0.738281 20.3125 -0.09375 C 19.0625 0.21875 17.613281 0.375 15.96875 0.375 C 14.332031 0.375 12.648438 0.0351562 10.921875 -0.640625 C 9.191406 -1.316406 7.675781 -2.285156 6.375 -3.546875 Z M 16.578125 -26.703125 C 15.859375 -26.703125 15.179688 -26.648438 14.546875 -26.546875 L 14.546875 -1.21875 C 15.148438 -1.113281 15.828125 -1.0625 16.578125 -1.0625 C 20.066406 -1.0625 23.007812 -2.226562 25.40625 -4.5625 C 27.90625 -6.976562 29.15625 -10.101562 29.15625 -13.9375 C 29.15625 -17.59375 27.984375 -20.632812 25.640625 -23.0625 C 23.273438 -25.488281 20.253906 -26.703125 16.578125 -26.703125 Z M 18.734375 -35.578125 L 24.234375 -35.578125 L 19.46875 -30 L 16.421875 -30 Z M 18.734375 -35.578125 "/></g></g></g><g fill="#000000" fill-opacity="1"><g transform="translate(579.707516, 124.055333)"><g><path d="M 23.296875 -28 C 23.828125 -28 24.09375 -27.71875 24.09375 -27.15625 C 24.09375 -26.875 24.003906 -26.546875 23.828125 -26.171875 C 23.648438 -25.796875 23.507812 -25.488281 23.40625 -25.25 L 12.75 1.078125 L -0.171875 -27.78125 L 10.546875 -27.78125 L 16.796875 -13.09375 L 21.171875 -24.0625 C 21.640625 -25.238281 21.945312 -26.085938 22.09375 -26.609375 C 22.238281 -27.128906 22.394531 -27.488281 22.5625 -27.6875 C 22.726562 -27.894531 22.972656 -28 23.296875 -28 Z M 23.296875 -28 "/></g></g></g><g fill="#000000" fill-opacity="1"><g transform="translate(604.450166, 124.055333)"><g><path d="M 20.703125 -1.6875 C 21.367188 -1.6875 21.703125 -1.425781 21.703125 -0.90625 C 21.703125 -0.664062 21.554688 -0.453125 21.265625 -0.265625 C 20.984375 -0.0859375 20.488281 0 19.78125 0 L 3.140625 0 L 3.140625 -27.78125 C 8.296875 -27.78125 13.453125 -27.78125 18.609375 -27.78125 L 20.234375 -27.84375 C 21.210938 -27.84375 21.703125 -27.554688 21.703125 -26.984375 C 21.703125 -26.765625 21.617188 -26.554688 21.453125 -26.359375 C 21.285156 -26.171875 21.097656 -26.078125 20.890625 -26.078125 C 20.554688 -26.078125 20.195312 -26.117188 19.8125 -26.203125 C 19.25 -26.316406 18.476562 -26.375 17.5 -26.375 L 13.15625 -26.375 L 13.15625 -20.390625 L 16.734375 -20.390625 C 16.734375 -20.390625 17.535156 -20.421875 19.140625 -20.484375 C 19.429688 -20.484375 19.675781 -20.410156 19.875 -20.265625 C 20.082031 -20.128906 20.1875 -19.941406 20.1875 -19.703125 C 20.1875 -19.148438 19.820312 -18.875 19.09375 -18.875 L 18.25 -18.890625 C 17.8125 -18.929688 17.445312 -18.953125 17.15625 -18.953125 L 13.15625 -18.953125 L 13.15625 -1.4375 L 17.5 -1.4375 C 18.46875 -1.4375 19.15625 -1.472656 19.5625 -1.546875 C 20.039062 -1.640625 20.421875 -1.6875 20.703125 -1.6875 Z M 20.703125 -1.6875 "/></g></g></g><g fill="#000000" fill-opacity="1"><g transform="translate(627.936046, 124.055333)"><g><path d="M 3.140625 -27.78125 L 13.15625 -27.78125 L 13.15625 0 L 3.140625 0 Z M 3.140625 -27.78125 "/></g></g></g><g fill="#000000" fill-opacity="1"><g transform="translate(644.215147, 124.055333)"><g><path d="M 3.46875 -1.40625 C 3.007812 -1.675781 2.613281 -1.953125 2.28125 -2.234375 C 1.945312 -2.523438 1.78125 -2.832031 1.78125 -3.15625 C 1.78125 -3.789062 2.050781 -4.109375 2.59375 -4.109375 C 2.945312 -4.109375 3.335938 -3.910156 3.765625 -3.515625 C 4.203125 -3.117188 4.6875 -2.773438 5.21875 -2.484375 C 5.757812 -2.191406 6.34375 -1.941406 6.96875 -1.734375 C 8.269531 -1.296875 9.46875 -1.078125 10.5625 -1.078125 C 11.664062 -1.078125 12.515625 -1.148438 13.109375 -1.296875 C 13.703125 -1.441406 14.203125 -1.640625 14.609375 -1.890625 C 15.472656 -2.421875 15.90625 -3.109375 15.90625 -3.953125 C 15.90625 -4.722656 15.53125 -5.5 14.78125 -6.28125 C 14.15625 -6.945312 13.265625 -7.75 12.109375 -8.6875 L 8.765625 -11.3125 C 5.398438 -13.90625 3.414062 -16.273438 2.8125 -18.421875 C 2.601562 -19.171875 2.5 -20.003906 2.5 -20.921875 C 2.5 -21.835938 2.703125 -22.738281 3.109375 -23.625 C 3.523438 -24.507812 4.140625 -25.289062 4.953125 -25.96875 C 6.691406 -27.414062 9.0625 -28.140625 12.0625 -28.140625 C 13.59375 -28.140625 14.96875 -27.910156 16.1875 -27.453125 C 17.40625 -27.003906 18.234375 -26.601562 18.671875 -26.25 C 19.117188 -25.894531 19.34375 -25.578125 19.34375 -25.296875 C 19.34375 -24.691406 19.09375 -24.390625 18.59375 -24.390625 C 18.3125 -24.390625 18.003906 -24.53125 17.671875 -24.8125 C 17.347656 -25.101562 16.984375 -25.359375 16.578125 -25.578125 C 16.179688 -25.796875 15.726562 -25.988281 15.21875 -26.15625 C 14.113281 -26.519531 13.035156 -26.703125 11.984375 -26.703125 C 10.023438 -26.703125 9.046875 -26.0625 9.046875 -24.78125 C 9.046875 -24.25 9.222656 -23.753906 9.578125 -23.296875 C 10.210938 -22.492188 11.441406 -21.347656 13.265625 -19.859375 C 15.085938 -18.378906 16.550781 -17.082031 17.65625 -15.96875 C 18.769531 -14.851562 19.613281 -13.851562 20.1875 -12.96875 C 21.101562 -11.5625 21.5625 -10.101562 21.5625 -8.59375 C 21.5625 -7.082031 21.296875 -5.796875 20.765625 -4.734375 C 20.234375 -3.679688 19.488281 -2.773438 18.53125 -2.015625 C 16.519531 -0.421875 14.019531 0.375 11.03125 0.375 C 8.050781 0.375 5.53125 -0.21875 3.46875 -1.40625 Z M 3.46875 -1.40625 "/></g></g></g><g fill="#000000" fill-opacity="1"><g transform="translate(438.647187, 166.339122)"><g><path d="M 5.765625 0 C 4.960938 0 4.363281 -0.0976562 3.96875 -0.296875 C 3.570312 -0.503906 3.285156 -0.875 3.109375 -1.40625 C 2.941406 -1.945312 2.859375 -2.765625 2.859375 -3.859375 L 2.859375 -21.234375 L 5.765625 -21.234375 L 5.765625 -3.859375 C 5.765625 -2.765625 5.910156 -1.953125 6.203125 -1.421875 C 6.503906 -0.898438 7.109375 -0.640625 8.015625 -0.640625 L 8.65625 -0.640625 L 8.65625 0 Z M 5.765625 0 "/></g></g></g><g fill="#000000" fill-opacity="1"><g transform="translate(447.816314, 166.339122)"><g><path d="M 2.796875 -11.265625 C 2.796875 -12.359375 2.644531 -13.164062 2.34375 -13.6875 C 2.039062 -14.21875 1.441406 -14.484375 0.546875 -14.484375 L -0.09375 -14.484375 L -0.09375 -15.125 L 2.796875 -15.125 C 3.585938 -15.125 4.191406 -15.015625 4.609375 -14.796875 C 5.035156 -14.585938 5.34375 -14.265625 5.53125 -13.828125 L 5.6875 -13.828125 C 6.144531 -14.285156 6.734375 -14.664062 7.453125 -14.96875 C 8.171875 -15.28125 8.976562 -15.4375 9.875 -15.4375 C 10.78125 -15.4375 11.550781 -15.269531 12.1875 -14.9375 C 12.832031 -14.601562 13.347656 -14.019531 13.734375 -13.1875 C 14.296875 -13.894531 15.007812 -14.445312 15.875 -14.84375 C 16.75 -15.238281 17.644531 -15.4375 18.5625 -15.4375 C 19.9375 -15.4375 21.03125 -15.007812 21.84375 -14.15625 C 22.65625 -13.300781 23.0625 -11.800781 23.0625 -9.65625 L 23.0625 0 L 20.171875 0 L 20.171875 -9.65625 C 20.171875 -11.195312 19.957031 -12.304688 19.53125 -12.984375 C 19.101562 -13.660156 18.457031 -14 17.59375 -14 C 17 -14 16.367188 -13.773438 15.703125 -13.328125 C 15.035156 -12.890625 14.539062 -12.414062 14.21875 -11.90625 C 14.320312 -11.582031 14.375 -10.832031 14.375 -9.65625 L 14.375 0 L 11.484375 0 L 11.484375 -9.65625 C 11.484375 -11.195312 11.269531 -12.304688 10.84375 -12.984375 C 10.414062 -13.660156 9.769531 -14 8.90625 -14 C 7.769531 -14 6.695312 -13.429688 5.6875 -12.296875 L 5.6875 0 L 2.796875 0 Z M 2.796875 -11.265625 "/></g></g></g><g fill="#000000" fill-opacity="1"><g transform="translate(473.071639, 166.339122)"><g><path d="M 8.53125 0.328125 C 7.070312 0.328125 5.804688 -0.0195312 4.734375 -0.71875 C 3.660156 -1.414062 2.84375 -2.363281 2.28125 -3.5625 C 1.726562 -4.769531 1.453125 -6.101562 1.453125 -7.5625 C 1.453125 -9.019531 1.726562 -10.347656 2.28125 -11.546875 C 2.84375 -12.742188 3.660156 -13.691406 4.734375 -14.390625 C 5.804688 -15.085938 7.070312 -15.4375 8.53125 -15.4375 C 9.988281 -15.4375 11.253906 -15.085938 12.328125 -14.390625 C 13.398438 -13.691406 14.210938 -12.742188 14.765625 -11.546875 C 15.328125 -10.347656 15.609375 -9.019531 15.609375 -7.5625 C 15.609375 -6.101562 15.328125 -4.769531 14.765625 -3.5625 C 14.210938 -2.363281 13.398438 -1.414062 12.328125 -0.71875 C 11.253906 -0.0195312 9.988281 0.328125 8.53125 0.328125 Z M 8.53125 -0.96875 C 9.320312 -0.96875 10.019531 -1.253906 10.625 -1.828125 C 11.238281 -2.410156 11.710938 -3.207031 12.046875 -4.21875 C 12.378906 -5.226562 12.546875 -6.34375 12.546875 -7.5625 C 12.546875 -8.78125 12.378906 -9.894531 12.046875 -10.90625 C 11.710938 -11.914062 11.238281 -12.707031 10.625 -13.28125 C 10.019531 -13.863281 9.320312 -14.15625 8.53125 -14.15625 C 7.726562 -14.15625 7.019531 -13.863281 6.40625 -13.28125 C 5.800781 -12.707031 5.332031 -11.914062 5 -10.90625 C 4.664062 -9.894531 4.5 -8.78125 4.5 -7.5625 C 4.5 -6.34375 4.664062 -5.226562 5 -4.21875 C 5.332031 -3.207031 5.800781 -2.410156 6.40625 -1.828125 C 7.019531 -1.253906 7.726562 -0.96875 8.53125 -0.96875 Z M 8.53125 -0.96875 "/></g></g></g><g fill="#000000" fill-opacity="1"><g transform="translate(490.12301, 166.339122)"><g><path d="M 9.5625 0.328125 C 8.46875 0.328125 7.566406 0.15625 6.859375 -0.1875 C 6.148438 -0.53125 5.601562 -0.953125 5.21875 -1.453125 L 5.046875 -1.453125 L 3.921875 0 L 2.3125 0 L 2.3125 -17.375 C 2.3125 -18.46875 2.160156 -19.273438 1.859375 -19.796875 C 1.566406 -20.328125 0.96875 -20.59375 0.0625 -20.59375 L -0.578125 -20.59375 L -0.578125 -21.234375 L 2.3125 -21.234375 C 3.101562 -21.234375 3.695312 -21.128906 4.09375 -20.921875 C 4.5 -20.722656 4.785156 -20.351562 4.953125 -19.8125 C 5.128906 -19.28125 5.21875 -18.46875 5.21875 -17.375 L 5.21875 -14.484375 C 5.832031 -14.773438 6.453125 -15.003906 7.078125 -15.171875 C 7.703125 -15.347656 8.421875 -15.4375 9.234375 -15.4375 C 11.222656 -15.4375 12.738281 -14.695312 13.78125 -13.21875 C 14.820312 -11.738281 15.34375 -9.851562 15.34375 -7.5625 C 15.34375 -5.289062 14.835938 -3.40625 13.828125 -1.90625 C 12.828125 -0.414062 11.40625 0.328125 9.5625 0.328125 Z M 8.59375 -0.96875 C 9.8125 -0.96875 10.734375 -1.570312 11.359375 -2.78125 C 11.984375 -3.988281 12.296875 -5.582031 12.296875 -7.5625 C 12.296875 -9.550781 11.96875 -11.144531 11.3125 -12.34375 C 10.65625 -13.550781 9.640625 -14.15625 8.265625 -14.15625 C 7.816406 -14.15625 7.351562 -14.066406 6.875 -13.890625 C 6.40625 -13.722656 5.851562 -13.488281 5.21875 -13.1875 L 5.21875 -2.890625 C 5.601562 -2.316406 6.054688 -1.851562 6.578125 -1.5 C 7.109375 -1.144531 7.78125 -0.96875 8.59375 -0.96875 Z M 8.59375 -0.96875 "/></g></g></g><g fill="#000000" fill-opacity="1"><g transform="translate(506.949159, 166.339122)"><g><path d="M 4.015625 -17.046875 C 3.523438 -17.046875 3.101562 -17.25 2.75 -17.65625 C 2.394531 -18.070312 2.21875 -18.554688 2.21875 -19.109375 C 2.21875 -19.554688 2.351562 -19.910156 2.625 -20.171875 C 2.894531 -20.429688 3.253906 -20.5625 3.703125 -20.5625 C 4.191406 -20.5625 4.613281 -20.351562 4.96875 -19.9375 C 5.320312 -19.53125 5.5 -19.050781 5.5 -18.5 C 5.5 -18.050781 5.363281 -17.695312 5.09375 -17.4375 C 4.832031 -17.175781 4.472656 -17.046875 4.015625 -17.046875 Z M 2.796875 -11.265625 C 2.796875 -12.359375 2.644531 -13.164062 2.34375 -13.6875 C 2.039062 -14.21875 1.441406 -14.484375 0.546875 -14.484375 L -0.09375 -14.484375 L -0.09375 -15.125 L 2.796875 -15.125 C 3.585938 -15.125 4.179688 -15.019531 4.578125 -14.8125 C 4.972656 -14.613281 5.253906 -14.242188 5.421875 -13.703125 C 5.597656 -13.171875 5.6875 -12.359375 5.6875 -11.265625 L 5.6875 0 L 2.796875 0 Z M 2.796875 -11.265625 "/></g></g></g><g fill="#000000" fill-opacity="1"><g transform="translate(514.863559, 166.339122)"><g><path d="M 2.4375 -17.375 C 2.4375 -18.46875 2.285156 -19.273438 1.984375 -19.796875 C 1.691406 -20.328125 1.09375 -20.59375 0.1875 -20.59375 L -0.453125 -20.59375 L -0.453125 -21.234375 L 2.4375 -21.234375 C 3.238281 -21.234375 3.835938 -21.128906 4.234375 -20.921875 C 4.628906 -20.722656 4.910156 -20.351562 5.078125 -19.8125 C 5.253906 -19.28125 5.34375 -18.46875 5.34375 -17.375 L 5.34375 0 L 2.4375 0 Z M 2.4375 -17.375 "/></g></g></g><g fill="#000000" fill-opacity="1"><g transform="translate(522.649271, 166.339122)"><g><path d="M 4.015625 -17.046875 C 3.523438 -17.046875 3.101562 -17.25 2.75 -17.65625 C 2.394531 -18.070312 2.21875 -18.554688 2.21875 -19.109375 C 2.21875 -19.554688 2.351562 -19.910156 2.625 -20.171875 C 2.894531 -20.429688 3.253906 -20.5625 3.703125 -20.5625 C 4.191406 -20.5625 4.613281 -20.351562 4.96875 -19.9375 C 5.320312 -19.53125 5.5 -19.050781 5.5 -18.5 C 5.5 -18.050781 5.363281 -17.695312 5.09375 -17.4375 C 4.832031 -17.175781 4.472656 -17.046875 4.015625 -17.046875 Z M 2.796875 -11.265625 C 2.796875 -12.359375 2.644531 -13.164062 2.34375 -13.6875 C 2.039062 -14.21875 1.441406 -14.484375 0.546875 -14.484375 L -0.09375 -14.484375 L -0.09375 -15.125 L 2.796875 -15.125 C 3.585938 -15.125 4.179688 -15.019531 4.578125 -14.8125 C 4.972656 -14.613281 5.253906 -14.242188 5.421875 -13.703125 C 5.597656 -13.171875 5.6875 -12.359375 5.6875 -11.265625 L 5.6875 0 L 2.796875 0 Z M 2.796875 -11.265625 "/></g></g></g><g fill="#000000" fill-opacity="1"><g transform="translate(530.56367, 166.339122)"><g><path d="M 9.265625 -17.53125 C 11.367188 -17.53125 12.921875 -17.066406 13.921875 -16.140625 C 14.929688 -15.222656 15.4375 -13.757812 15.4375 -11.75 L 15.4375 0 L 13.390625 0 L 12.84375 -2.4375 L 12.703125 -2.4375 C 11.953125 -1.5 11.160156 -0.800781 10.328125 -0.34375 C 9.492188 0.101562 8.359375 0.328125 6.921875 0.328125 C 5.347656 0.328125 4.046875 -0.0820312 3.015625 -0.90625 C 1.992188 -1.738281 1.484375 -3.035156 1.484375 -4.796875 C 1.484375 -6.515625 2.15625 -7.835938 3.5 -8.765625 C 4.851562 -9.703125 6.9375 -10.210938 9.75 -10.296875 L 12.671875 -10.390625 L 12.671875 -11.421875 C 12.671875 -12.859375 12.359375 -13.851562 11.734375 -14.40625 C 11.117188 -14.96875 10.242188 -15.25 9.109375 -15.25 C 8.203125 -15.25 7.34375 -15.113281 6.53125 -14.84375 C 5.71875 -14.570312 4.957031 -14.269531 4.25 -13.9375 L 3.375 -16.046875 C 4.125 -16.460938 5.015625 -16.8125 6.046875 -17.09375 C 7.078125 -17.382812 8.148438 -17.53125 9.265625 -17.53125 Z M 12.640625 -8.421875 L 10.109375 -8.328125 C 7.960938 -8.242188 6.472656 -7.898438 5.640625 -7.296875 C 4.816406 -6.703125 4.40625 -5.859375 4.40625 -4.765625 C 4.40625 -3.796875 4.695312 -3.085938 5.28125 -2.640625 C 5.875 -2.191406 6.632812 -1.96875 7.5625 -1.96875 C 9 -1.96875 10.203125 -2.367188 11.171875 -3.171875 C 12.148438 -3.972656 12.640625 -5.210938 12.640625 -6.890625 Z M 13.75 -24.640625 L 13.75 -24.328125 C 13.46875 -23.941406 13.066406 -23.441406 12.546875 -22.828125 C 12.023438 -22.210938 11.457031 -21.597656 10.84375 -20.984375 C 10.226562 -20.378906 9.664062 -19.882812 9.15625 -19.5 L 7.28125 -19.5 L 7.28125 -19.875 C 7.582031 -20.269531 7.925781 -20.75 8.3125 -21.3125 C 8.695312 -21.882812 9.070312 -22.460938 9.4375 -23.046875 C 9.800781 -23.640625 10.101562 -24.171875 10.34375 -24.640625 Z M 13.75 -24.640625 "/></g></g></g><g fill="#000000" fill-opacity="1"><g transform="translate(548.612392, 166.339122)"><g><path d="M 2.578125 -11.265625 C 2.578125 -12.359375 2.425781 -13.164062 2.125 -13.6875 C 1.820312 -14.21875 1.222656 -14.484375 0.328125 -14.484375 L 0 -14.484375 L 0 -15.125 L 2.578125 -15.125 C 3.390625 -15.125 4.003906 -15.007812 4.421875 -14.78125 C 4.835938 -14.550781 5.132812 -14.179688 5.3125 -13.671875 L 5.46875 -13.671875 C 5.851562 -14.160156 6.375 -14.578125 7.03125 -14.921875 C 7.6875 -15.265625 8.453125 -15.4375 9.328125 -15.4375 C 10.179688 -15.4375 10.828125 -15.273438 11.265625 -14.953125 C 11.628906 -14.679688 12.003906 -14.203125 12.390625 -13.515625 L 11.09375 -12.546875 C 10.863281 -12.867188 10.519531 -13.109375 10.0625 -13.265625 C 9.613281 -13.429688 9.101562 -13.515625 8.53125 -13.515625 C 7.882812 -13.515625 7.289062 -13.367188 6.75 -13.078125 C 6.21875 -12.785156 5.789062 -12.394531 5.46875 -11.90625 L 5.46875 0 L 2.578125 0 Z M 2.578125 -11.265625 "/></g></g></g><g fill="#000000" fill-opacity="1"><g transform="translate(561.384832, 166.339122)"><g><path d="M 4.015625 -17.046875 C 3.523438 -17.046875 3.101562 -17.25 2.75 -17.65625 C 2.394531 -18.070312 2.21875 -18.554688 2.21875 -19.109375 C 2.21875 -19.554688 2.351562 -19.910156 2.625 -20.171875 C 2.894531 -20.429688 3.253906 -20.5625 3.703125 -20.5625 C 4.191406 -20.5625 4.613281 -20.351562 4.96875 -19.9375 C 5.320312 -19.53125 5.5 -19.050781 5.5 -18.5 C 5.5 -18.050781 5.363281 -17.695312 5.09375 -17.4375 C 4.832031 -17.175781 4.472656 -17.046875 4.015625 -17.046875 Z M 2.796875 -11.265625 C 2.796875 -12.359375 2.644531 -13.164062 2.34375 -13.6875 C 2.039062 -14.21875 1.441406 -14.484375 0.546875 -14.484375 L -0.09375 -14.484375 L -0.09375 -15.125 L 2.796875 -15.125 C 3.585938 -15.125 4.179688 -15.019531 4.578125 -14.8125 C 4.972656 -14.613281 5.253906 -14.242188 5.421875 -13.703125 C 5.597656 -13.171875 5.6875 -12.359375 5.6875 -11.265625 L 5.6875 0 L 2.796875 0 Z M 2.796875 -11.265625 "/></g></g></g><g fill="#000000" fill-opacity="1"><g transform="translate(569.299231, 166.339122)"><g><path d="M 5.921875 0.328125 C 5.234375 0.328125 4.535156 0.179688 3.828125 -0.109375 C 3.117188 -0.398438 2.507812 -0.878906 2 -1.546875 C 1.5 -2.210938 1.25 -3.09375 1.25 -4.1875 C 1.25 -5.8125 2.003906 -6.96875 3.515625 -7.65625 C 5.035156 -8.34375 7.015625 -8.6875 9.453125 -8.6875 L 10.421875 -8.6875 C 10.421875 -10.789062 10.128906 -12.226562 9.546875 -13 C 8.972656 -13.769531 8.140625 -14.15625 7.046875 -14.15625 C 6.078125 -14.15625 5.300781 -13.953125 4.71875 -13.546875 C 4.144531 -13.140625 3.738281 -12.429688 3.5 -11.421875 L 2.0625 -11.421875 C 2.0625 -12.148438 2.101562 -12.722656 2.1875 -13.140625 C 2.269531 -13.554688 2.492188 -13.945312 2.859375 -14.3125 C 3.242188 -14.695312 3.878906 -14.976562 4.765625 -15.15625 C 5.660156 -15.34375 6.632812 -15.4375 7.6875 -15.4375 C 9.425781 -15.4375 10.796875 -14.96875 11.796875 -14.03125 C 12.804688 -13.101562 13.3125 -11.320312 13.3125 -8.6875 L 13.3125 0 L 11.703125 0 L 10.578125 -1.453125 L 10.421875 -1.453125 C 10.035156 -0.953125 9.46875 -0.53125 8.71875 -0.1875 C 7.96875 0.15625 7.035156 0.328125 5.921875 0.328125 Z M 7.375 -1.125 C 8.070312 -1.125 8.65625 -1.296875 9.125 -1.640625 C 9.601562 -1.984375 10.035156 -2.457031 10.421875 -3.0625 L 10.421875 -7.40625 L 9.453125 -7.40625 C 7.867188 -7.40625 6.613281 -7.109375 5.6875 -6.515625 C 4.769531 -5.921875 4.3125 -5.144531 4.3125 -4.1875 C 4.3125 -3.195312 4.601562 -2.4375 5.1875 -1.90625 C 5.78125 -1.382812 6.507812 -1.125 7.375 -1.125 Z M 7.375 -1.125 "/></g></g></g></svg>